<svg width="24" height="25" viewBox="0 0 24 25" fill="none" xmlns="http://www.w3.org/2000/svg">
<path fill-rule="evenodd" clip-rule="evenodd" d="M12 2.8479C6.48 2.8479 2 7.3279 2 12.8479C2 18.3679 6.48 22.8479 12 22.8479C17.52 22.8479 22 18.3679 22 12.8479C22 7.3279 17.52 2.8479 12 2.8479ZM11 19.8479V17.8479H13V19.8479H11ZM14.17 13.0179L15.07 12.0979C16.09 11.0779 16.44 9.3279 15.26 7.6979C14.36 6.4479 12.91 5.6579 11.39 5.8979C9.84 6.1379 8.59 7.2579 8.16 8.7279C8 9.2879 8.4 9.8479 8.98 9.8479H9.28C9.67 9.8479 9.98 9.5679 10.1 9.1979C10.43 8.2479 11.46 7.6179 12.57 7.9279C13.27 8.1279 13.83 8.7379 13.96 9.4579C14.09 10.1579 13.87 10.8179 13.41 11.2579L12.17 12.5179C11.75 12.9379 11.42 13.4579 11.22 14.0379C11.08 14.4479 11 14.8879 11 15.3479V15.8479H13C13 15.3879 13.05 15.0279 13.13 14.7079C13.31 13.9879 13.67 13.5279 14.17 13.0179Z" fill="#3D454B"/>
</svg>
