<svg width="35" height="35" viewBox="0 0 35 35" fill="none" xmlns="http://www.w3.org/2000/svg">
<path d="M2 26.8479V20.8479C2 16.074 3.63303 11.4956 6.53985 8.11998C9.44666 4.74432 13.3891 2.8479 17.5 2.8479C21.6109 2.8479 25.5533 4.74432 28.4602 8.11998C31.367 11.4956 33 16.074 33 20.8479V26.8479M29.125 32.8479C26.9849 32.8479 25.25 31.057 25.25 28.8479V22.8479C25.25 20.6388 26.9849 18.8479 29.125 18.8479C31.2651 18.8479 33 20.6388 33 22.8479V28.8479C33 31.057 31.2651 32.8479 29.125 32.8479ZM5.875 32.8479C3.7349 32.8479 2 31.057 2 28.8479V22.8479C2 20.6388 3.7349 18.8479 5.875 18.8479C8.0151 18.8479 9.75 20.6388 9.75 22.8479V28.8479C9.75 31.057 8.0151 32.8479 5.875 32.8479Z" stroke="#D29A5A" stroke-width="4" stroke-linecap="round" stroke-linejoin="round"/>
</svg>
