<svg width="40" height="41" viewBox="0 0 40 41" fill="none" xmlns="http://www.w3.org/2000/svg">
<path d="M20 38.8479C24.1644 38.8479 28.1999 37.404 31.4191 34.7621C34.6382 32.1202 36.8417 28.4439 37.6541 24.3595C38.4665 20.2752 37.8376 16.0354 35.8746 12.3628C33.9115 8.6901 30.7357 5.81172 26.8883 4.21807C23.0409 2.62443 18.76 2.41412 14.7749 3.62298C10.7898 4.83184 7.34718 7.38507 5.03357 10.8476C2.71996 14.3102 1.67852 18.4679 2.0867 22.6122C2.49488 26.7565 4.32743 30.6311 7.27209 33.5758M28 16.8479L20.8041 25.483C19.4929 27.0564 18.8374 27.8431 17.9562 27.883C17.0751 27.923 16.351 27.1989 14.9028 25.7507L12 22.8479" stroke="#D29A5A" stroke-width="4" stroke-linecap="round"/>
</svg>
